<svg xmlns="http://www.w3.org/2000/svg" width="84" height="20" viewBox="0 0 84 20" fill="none"><g clip-path="url(#clip0_1058_2465)"><path d="M15.4895 19.5349H19.6277C20.7395 19.5349 21.6512 18.436 21.6512 17.093C21.6512 15.75 20.7395 14.6512 19.6277 14.6512H6.58163C5.46977 14.6512 4.55814 15.75 4.55814 17.093C4.55814 18.436 5.46977 19.5349 6.58163 19.5349H10.8826C11.0503 19.0579 11.3621 18.6448 11.7747 18.3526C12.1873 18.0603 12.6804 17.9033 13.186 17.9033C13.6917 17.9033 14.1848 18.0603 14.5974 18.3526C15.01 18.6448 15.3217 19.0579 15.4895 19.5349V19.5349ZM19.6277 4.88372H6.58163C5.46977 4.88372 4.55814 3.78488 4.55814 2.44186C4.55814 1.09884 5.46977 0 6.58163 0H19.6277C20.7395 0 21.6512 1.09884 21.6512 2.44186C21.6512 3.78488 20.7395 4.88372 19.6277 4.88372V4.88372ZM2.28721 12.2093C1.02884 12.2093 0 11.1105 0 9.76744C0 8.42442 1.02884 7.32558 2.28721 7.32558H23.7674C25.0177 7.32558 26.0465 8.42442 26.0465 9.76744C26.0465 11.1105 25.0177 12.2093 23.7674 12.2093H2.28721Z" fill="url(#paint0_linear_1058_2465)"></path><path d="M45.419 17.7749V1.64561C45.4194 1.21207 45.2486 0.795893 44.9438 0.48766C44.6389 0.179428 44.2246 0.00408566 43.7911 -0.000206591C43.5747 -0.00426974 43.3597 0.0356601 43.1591 0.117162C42.9586 0.198664 42.7767 0.32004 42.6245 0.473932C42.4723 0.627824 42.3529 0.811026 42.2736 1.01243C42.1943 1.21384 42.1567 1.42925 42.1632 1.64561V7.81375H32.0701V1.64561C32.0697 1.21232 31.8987 0.79664 31.594 0.488591C31.2893 0.180543 30.8755 0.00493097 30.4422 -0.000206591C30.2263 -0.0024365 30.0122 0.0387448 29.8125 0.120892C29.6128 0.203039 29.4316 0.324476 29.2798 0.477993C29.1279 0.631509 29.0085 0.813974 28.9285 1.01455C28.8486 1.21513 28.8097 1.42973 28.8143 1.64561V17.7749C28.8143 18.6833 29.5306 19.5151 30.4422 19.5151C31.4108 19.5151 32.0701 18.6833 32.0701 17.7749V10.5812H42.1632V17.7717C42.1632 18.68 42.8567 19.5119 43.7911 19.5119C44.7678 19.5151 45.419 18.6833 45.419 17.7749ZM50.3239 -0.000206591C50.0013 -0.00019627 49.6861 0.0956165 49.4181 0.275076C49.1501 0.454535 48.9415 0.709552 48.8187 1.00777C48.6958 1.30599 48.6644 1.63398 48.7283 1.95011C48.7921 2.26624 48.9485 2.55628 49.1774 2.78342C49.4064 3.01056 49.6977 3.16456 50.0143 3.2259C50.331 3.28723 50.6587 3.25313 50.9559 3.12792C51.2531 3.00271 51.5065 2.79203 51.6838 2.52261C51.8611 2.2532 51.9544 1.93719 51.9518 1.61468C51.9483 1.18519 51.7753 0.774464 51.4704 0.471983C51.1655 0.169502 50.7534 -0.000220335 50.3239 -0.000206591V-0.000206591ZM51.9518 17.9361V6.79631C51.9518 5.997 51.1671 5.23514 50.3239 5.23514C49.901 5.22642 49.492 5.38596 49.1867 5.67871C48.8814 5.97146 48.7049 6.37345 48.696 6.79631V17.9361C48.696 18.763 49.4839 19.5151 50.3873 19.5151C50.804 19.5126 51.2026 19.3449 51.4959 19.0489C51.7891 18.7529 51.9531 18.3527 51.9518 17.9361V17.9361ZM68.5792 6.74258C68.5783 6.5395 68.5365 6.33867 68.4564 6.15204C68.3763 5.96541 68.2595 5.79678 68.113 5.65617C67.9665 5.51555 67.7932 5.40582 67.6034 5.3335C67.4136 5.26117 67.2112 5.22772 67.0083 5.23514C66.707 5.23035 66.4115 5.31775 66.1612 5.48563C65.911 5.65351 65.7181 5.89385 65.6083 6.17444L62.0464 15.7905L58.2664 6.14514C58.1535 5.86894 57.9589 5.63381 57.7087 5.47118C57.4586 5.30856 57.1647 5.22621 56.8664 5.23514C56.4667 5.22943 56.0809 5.38132 55.7924 5.65796C55.5039 5.9346 55.3359 6.31372 55.3248 6.71328C55.3209 6.89978 55.3599 7.08468 55.4387 7.25375L59.7804 17.8563C60.1239 18.7093 61.0469 19.5151 61.9894 19.5151H62.0464C62.989 19.5151 63.7508 18.7093 64.122 17.8563L68.4653 7.25375C68.5402 7.09374 68.5791 6.91925 68.5792 6.74258ZM83.9906 11.8558C83.9906 12.6454 83.3573 13.2282 82.545 13.2282H73.5541C73.7511 15.2565 75.3627 17.0668 77.8843 17.0668C78.956 17.0516 80.0025 16.7394 80.9073 16.1649C81.0967 16.0558 81.3113 15.9981 81.5298 15.9976C81.7484 15.9972 81.9632 16.0539 82.153 16.1622C82.3428 16.2705 82.501 16.4267 82.6117 16.615C82.7225 16.8034 82.782 17.0175 82.7843 17.2361C82.7843 18.7842 79.3104 19.4891 77.575 19.4891C73.5134 19.4891 70.4887 16.6451 70.4887 12.3344C70.4887 8.39165 73.3457 5.2091 77.352 5.2091C80.5167 5.2091 82.8136 7.12514 83.6536 10.0537C83.8497 10.6357 83.9631 11.2423 83.9906 11.8558V11.8558ZM81.3957 11.0907C81.3387 9.49049 80.2562 7.43444 77.5929 7.43444C75.0925 7.43444 73.8862 9.44165 73.7446 11.0907H81.3957Z" fill="white"></path></g><defs><linearGradient id="paint0_linear_1058_2465" x1="0.0325581" y1="9.73488" x2="26.0791" y2="9.73488" gradientUnits="userSpaceOnUse"><stop stop-color="#FBC67A"></stop><stop offset="1" stop-color="#FFA561"></stop></linearGradient><clipPath id="clip0_1058_2465"><rect width="84" height="19.5349" fill="white"></rect></clipPath></defs></svg>